<?xml version="1.0" encoding="iso-8859-1"?>
<!-- Generator: Adobe Illustrator 19.0.0, SVG Export Plug-In . SVG Version: 6.00 Build 0)  -->
<svg version="1.1" id="Layer_1" xmlns="http://www.w3.org/2000/svg" xmlns:xlink="http://www.w3.org/1999/xlink" x="0px" y="0px"
	 viewBox="0 0 512 512" style="enable-background:new 0 0 512 512;" xml:space="preserve">
<g>
	<circle style="fill:#A0EBFF;" cx="256" cy="256" r="256"/>
	<path style="fill:#F7BF00;" d="M406.83,196.864c7.014-7.014-6.564-31.959-30.321-55.721
		c-23.762-23.762-48.707-37.335-55.721-30.321l-0.215,0.302l-0.046-0.046L111.13,320.481c-7.014,7.014,6.564,31.959,30.321,55.721
		c23.757,23.762,48.707,37.335,55.721,30.321L406.569,197.12l-0.046-0.046L406.83,196.864z"/>
	<path style="fill:#F7BF00;" d="M400.87,190.904c7.014-7.014-6.564-31.959-30.321-55.721
		c-23.762-23.762-48.707-37.335-55.721-30.321l-0.215,0.302l-0.046-0.046L105.175,314.527c-7.014,7.014,6.564,31.959,30.321,55.721
		c23.762,23.762,48.707,37.335,55.721,30.321l209.398-209.398l-0.046-0.046L400.87,190.904z"/>
	<path style="fill:#FDF35A;" d="M314.834,144.435c4.219,4.219,11.054,4.219,15.273,0c4.219-4.219,4.219-11.054,0-15.273
		s-11.054-4.219-15.273,0C310.615,133.381,310.615,140.221,314.834,144.435z M279.347,179.922c4.219,4.219,11.054,4.219,15.273,0
		c4.219-4.219,4.219-11.054,0-15.273c-4.219-4.219-11.054-4.219-15.273,0C275.128,168.868,275.128,175.703,279.347,179.922z
		 M302.715,203.29c4.219,4.219,11.054,4.219,15.273,0c4.219-4.219,4.219-11.054,0-15.273c-4.219-4.219-11.054-4.219-15.273,0
		C298.496,192.236,298.496,199.071,302.715,203.29z M325.161,225.736c4.219,4.219,11.054,4.219,15.273,0s4.219-11.054,0-15.273
		s-11.054-4.219-15.273,0S320.947,221.522,325.161,225.736z M360.648,190.254c4.219,4.219,11.054,4.219,15.273,0
		s4.219-11.054,0-15.273s-11.054-4.219-15.273,0C356.429,179.2,356.429,186.035,360.648,190.254z M338.196,167.803
		c4.219,4.219,11.054,4.219,15.273,0s4.219-11.054,0-15.273s-11.054-4.219-15.273,0S333.983,163.584,338.196,167.803z
		 M287.206,218.798c-17.833-17.833-36.239-28.339-41.114-23.465l64.573,64.573C315.546,255.032,305.039,236.626,287.206,218.798z
		 M180.229,279.04c-4.219-4.219-11.054-4.219-15.273,0c-4.219,4.219-4.219,11.054,0,15.273c4.219,4.219,11.054,4.219,15.273,0
		C184.448,290.094,184.443,283.259,180.229,279.04z M190.556,360.34c-4.219-4.219-11.054-4.219-15.273,0
		c-4.219,4.219-4.219,11.054,0,15.273c4.219,4.219,11.054,4.219,15.273,0S194.775,364.559,190.556,360.34z M144.742,314.527
		c-4.219-4.219-11.054-4.219-15.273,0c-4.219,4.219-4.219,11.054,0,15.273c4.219,4.219,11.054,4.219,15.273,0
		S148.961,318.746,144.742,314.527z M219.1,286.899c17.833,17.833,36.239,28.334,41.114,23.465l-64.573-64.579
		C190.766,250.66,201.267,269.066,219.1,286.899z M226.043,324.859c-4.219-4.219-11.054-4.219-15.273,0
		c-4.219,4.219-4.219,11.054,0,15.273s11.054,4.219,15.273,0S230.262,329.073,226.043,324.859z M168.11,337.894
		c-4.219-4.219-11.054-4.219-15.273,0c-4.219,4.219-4.219,11.054,0,15.273c4.219,4.219,11.054,4.219,15.273,0
		C172.329,348.948,172.329,342.108,168.11,337.894z M203.592,302.408c-4.219-4.219-11.054-4.219-15.273,0
		c-4.219,4.219-4.219,11.054,0,15.273c4.219,4.219,11.054,4.219,15.273,0C207.811,313.462,207.811,306.627,203.592,302.408z"/>
	<path style="fill:#F7BF00;" d="M314.829,406.523c7.014,7.014,31.959-6.564,55.721-30.321
		c23.762-23.757,37.335-48.707,30.321-55.721l-0.302-0.215l0.046-0.046L191.212,110.822c-7.014-7.014-31.959,6.564-55.721,30.321
		c-23.762,23.762-37.335,48.707-30.321,55.721l209.403,209.398l0.046-0.046L314.829,406.523z"/>
	<path style="fill:#FDF35A;" d="M320.788,400.563c7.014,7.014,31.959-6.564,55.721-30.321
		c23.762-23.757,37.335-48.707,30.321-55.721l-0.302-0.215l0.046-0.046L197.171,104.868c-7.014-7.014-31.959,6.564-55.721,30.321
		c-23.762,23.762-37.335,48.707-30.321,55.721l209.398,209.398l0.046-0.046L320.788,400.563z"/>
	<path style="fill:#F7BF00;" d="M367.258,314.527c-4.219,4.219-4.219,11.054,0,15.273s11.054,4.219,15.273,0s4.219-11.054,0-15.273
		C378.312,310.308,371.476,310.308,367.258,314.527z M331.771,279.04c-4.219,4.219-4.219,11.054,0,15.273
		c4.219,4.219,11.054,4.219,15.273,0c4.219-4.219,4.219-11.054,0-15.273C342.825,274.826,335.99,274.826,331.771,279.04z
		 M308.408,302.408c-4.219,4.219-4.219,11.054,0,15.273c4.219,4.219,11.054,4.219,15.273,0c4.219-4.219,4.219-11.054,0-15.273
		C319.462,298.189,312.622,298.189,308.408,302.408z M285.957,324.859c-4.219,4.219-4.219,11.054,0,15.273s11.054,4.219,15.273,0
		c4.219-4.219,4.219-11.054,0-15.273C297.011,320.64,290.176,320.64,285.957,324.859z M321.444,360.34
		c-4.219,4.219-4.219,11.054,0,15.273c4.219,4.219,11.054,4.219,15.273,0s4.219-11.054,0-15.273
		C332.498,356.122,325.658,356.127,321.444,360.34z M343.89,337.894c-4.219,4.219-4.219,11.054,0,15.273
		c4.219,4.219,11.054,4.219,15.273,0c4.219-4.219,4.219-11.054,0-15.273C354.944,333.676,348.109,333.676,343.89,337.894z
		 M292.9,286.899c17.833-17.833,28.339-36.239,23.465-41.114l-64.579,64.579C256.66,315.238,275.067,304.732,292.9,286.899z
		 M232.653,179.922c4.219-4.219,4.219-11.054,0-15.273s-11.054-4.219-15.273,0s-4.219,11.054,0,15.273
		S228.434,184.141,232.653,179.922z M151.352,190.254c4.219-4.219,4.219-11.054,0-15.273c-4.219-4.219-11.054-4.219-15.273,0
		s-4.219,11.054,0,15.273C140.298,194.468,147.133,194.468,151.352,190.254z M197.166,144.435c4.219-4.219,4.219-11.054,0-15.273
		s-11.054-4.219-15.273,0s-4.219,11.054,0,15.273C186.112,148.654,192.952,148.654,197.166,144.435z M224.794,218.798
		c-17.833,17.833-28.339,36.239-23.465,41.114l64.573-64.573C261.033,190.459,242.627,200.965,224.794,218.798z M186.839,225.736
		c4.219-4.219,4.219-11.054,0-15.273s-11.054-4.219-15.273,0s-4.219,11.054,0,15.273S182.62,229.955,186.839,225.736z
		 M173.804,167.803c4.219-4.219,4.219-11.054,0-15.273s-11.054-4.219-15.273,0c-4.219,4.219-4.219,11.054,0,15.273
		C162.749,172.022,169.585,172.022,173.804,167.803z M209.285,203.29c4.219-4.219,4.219-11.054,0-15.273s-11.054-4.219-15.273,0
		s-4.219,11.054,0,15.273C198.231,207.508,205.071,207.503,209.285,203.29z"/>
</g>
<g>
</g>
<g>
</g>
<g>
</g>
<g>
</g>
<g>
</g>
<g>
</g>
<g>
</g>
<g>
</g>
<g>
</g>
<g>
</g>
<g>
</g>
<g>
</g>
<g>
</g>
<g>
</g>
<g>
</g>
</svg>
